<svg xmlns="http://www.w3.org/2000/svg" width="963" height="1497" viewBox="0 0 963 1497">
  <g id="그룹_10845" data-name="그룹 10845" transform="translate(-17800 -12784)">
    <rect id="사각형_9477" data-name="사각형 9477" width="963" height="1497" transform="translate(17800 12784)" fill="#fff"/>
    <text id="관리자_설정" data-name="관리자 설정" transform="translate(17869 13043)" fill="#fff" font-size="100" font-family="Pretendard-Bold, Pretendard" font-weight="700" letter-spacing="-0.03em"><tspan x="0" y="0">관리자 설정</tspan></text>
    <text id="비밀번호_입력" data-name="비밀번호 입력" transform="translate(17877 12910)" fill="#ef0" font-size="47" font-family="Pretendard-Regular, Pretendard" letter-spacing="-0.04em" opacity="0.9"><tspan x="0" y="0">비밀번호 입력</tspan></text>
    <g id="구성_요소_31_22" data-name="구성 요소 31 – 22" transform="translate(17853 14026)">
      <rect id="사각형_9407" data-name="사각형 9407" width="838" height="181" fill="#b40e00"/>
      <text id="비밀번호_입력_완료" data-name="비밀번호 입력 완료" transform="translate(227 110)" fill="#fff" font-size="54" font-family="Pretendard-SemiBold, Pretendard" font-weight="600" letter-spacing="-0.03em"><tspan x="0" y="0">비밀번호 입력 완료</tspan></text>
    </g>
    <rect id="사각형_9478" data-name="사각형 9478" width="836" height="162" transform="translate(17855 13131)" fill="#fff"/>
    <text id="비밀번호" transform="translate(17929 13227)" font-size="42" font-family="Pretendard-Medium, Pretendard" font-weight="500" letter-spacing="-0.04em" opacity="0.9"><tspan x="0" y="0">비밀번호</tspan></text>
    <text id="_" data-name="****" transform="translate(18508 13242)" font-size="54" font-family="Pretendard-Medium, Pretendard" font-weight="500" letter-spacing="0.04em" opacity="0.9"><tspan x="0" y="0">****</tspan></text>
    <g id="그룹_10833" data-name="그룹 10833" transform="translate(17747 12447)">
      <rect id="사각형_9479" data-name="사각형 9479" width="124" height="124" transform="translate(489 910)" fill="#fff" opacity="0.9"/>
      <text id="_1" data-name="1" transform="translate(536 997)" font-size="68" font-family="Pretendard-Medium, Pretendard" font-weight="500" letter-spacing="0.04em"><tspan x="0" y="0">1</tspan></text>
    </g>
    <g id="그룹_10836" data-name="그룹 10836" transform="translate(17747 12447)">
      <rect id="사각형_9479-2" data-name="사각형 9479" width="124" height="124" transform="translate(489 1067)" fill="#fff" opacity="0.9"/>
      <text id="_4" data-name="4" transform="translate(530 1154)" font-size="68" font-family="Pretendard-Medium, Pretendard" font-weight="500" letter-spacing="0.04em"><tspan x="0" y="0">4</tspan></text>
    </g>
    <g id="그룹_10839" data-name="그룹 10839" transform="translate(17747 12447)">
      <rect id="사각형_9479-3" data-name="사각형 9479" width="124" height="124" transform="translate(489 1223)" fill="#fff" opacity="0.9"/>
      <text id="_7" data-name="7" transform="translate(532 1310)" font-size="68" font-family="Pretendard-Medium, Pretendard" font-weight="500" letter-spacing="0.04em"><tspan x="0" y="0">7</tspan></text>
    </g>
    <g id="그룹_10834" data-name="그룹 10834" transform="translate(17747 12447)">
      <rect id="사각형_9479-4" data-name="사각형 9479" width="124" height="124" transform="translate(648 910)" fill="#fff" opacity="0.9"/>
      <text id="_2" data-name="2" transform="translate(690 997)" font-size="68" font-family="Pretendard-Medium, Pretendard" font-weight="500" letter-spacing="0.04em"><tspan x="0" y="0">2</tspan></text>
    </g>
    <g id="그룹_10837" data-name="그룹 10837" transform="translate(17747 12447)">
      <rect id="사각형_9479-5" data-name="사각형 9479" width="124" height="124" transform="translate(648 1067)" fill="#fff" opacity="0.9"/>
      <text id="_5" data-name="5" transform="translate(690 1154)" font-size="68" font-family="Pretendard-Medium, Pretendard" font-weight="500" letter-spacing="0.04em"><tspan x="0" y="0">5</tspan></text>
    </g>
    <g id="그룹_10840" data-name="그룹 10840" transform="translate(17747 12447)">
      <rect id="사각형_9479-6" data-name="사각형 9479" width="124" height="124" transform="translate(648 1223)" fill="#fff" opacity="0.9"/>
      <text id="_8" data-name="8" transform="translate(690 1310)" font-size="68" font-family="Pretendard-Medium, Pretendard" font-weight="500" letter-spacing="0.04em"><tspan x="0" y="0">8</tspan></text>
    </g>
    <g id="그룹_10843" data-name="그룹 10843" transform="translate(17747 12447)">
      <rect id="사각형_9479-7" data-name="사각형 9479" width="124" height="124" transform="translate(648 1380)" fill="#fff" opacity="0.9"/>
      <text id="_0" data-name="0" transform="translate(690 1467)" font-size="68" font-family="Pretendard-Medium, Pretendard" font-weight="500" letter-spacing="0.04em"><tspan x="0" y="0">0</tspan></text>
    </g>
    <g id="그룹_10835" data-name="그룹 10835" transform="translate(17747 12447)">
      <rect id="사각형_9479-8" data-name="사각형 9479" width="124" height="124" transform="translate(806 910)" fill="#fff" opacity="0.9"/>
      <text id="_3" data-name="3" transform="translate(847 997)" font-size="68" font-family="Pretendard-Medium, Pretendard" font-weight="500" letter-spacing="0.04em"><tspan x="0" y="0">3</tspan></text>
    </g>
    <g id="그룹_10838" data-name="그룹 10838" transform="translate(17747 12447)">
      <rect id="사각형_9479-9" data-name="사각형 9479" width="124" height="124" transform="translate(806 1067)" fill="#fff" opacity="0.9"/>
      <text id="_6" data-name="6" transform="translate(847 1154)" font-size="68" font-family="Pretendard-Medium, Pretendard" font-weight="500" letter-spacing="0.04em"><tspan x="0" y="0">6</tspan></text>
    </g>
    <g id="그룹_10841" data-name="그룹 10841" transform="translate(17747 12447)">
      <rect id="사각형_9479-10" data-name="사각형 9479" width="124" height="124" transform="translate(806 1223)" fill="#fff" opacity="0.9"/>
      <text id="_9" data-name="9" transform="translate(847 1310)" font-size="68" font-family="Pretendard-Medium, Pretendard" font-weight="500" letter-spacing="0.04em"><tspan x="0" y="0">9</tspan></text>
    </g>
    <g id="그룹_10844" data-name="그룹 10844" transform="translate(17747 12447)">
      <rect id="사각형_9479-11" data-name="사각형 9479" width="124" height="124" transform="translate(806 1380)" fill="#fff" opacity="0.9"/>
      <path id="패스_21769" data-name="패스 21769" d="M-17411.4,2415.968l-27.533,24.1,27.533,24.1" transform="translate(18293.164 -998.064)" fill="none" stroke="#000" stroke-width="6"/>
    </g>
    <g id="그룹_10842" data-name="그룹 10842" transform="translate(17747 12447)">
      <rect id="사각형_9479-12" data-name="사각형 9479" width="124" height="124" transform="translate(489 1380)" fill="#fff" opacity="0.9"/>
      <path id="패스_21788" data-name="패스 21788" d="M769.435,57.665c-.963-.15-1.933-.267-2.888-.455a23.924,23.924,0,0,1-18.869-19.576c-.195-1.2-.24-2.42-.359-3.675h6A17.667,17.667,0,0,0,761.28,48.7a16.957,16.957,0,0,0,12.36,2.819,17.756,17.756,0,0,0-2.487-35.338l-.055,9.677c-.062.044-15.935-12.777-15.935-12.777L771.1.87v9.273c.735.047,1.423.079,2.108.135a22.893,22.893,0,0,1,12.857,5.239,23.332,23.332,0,0,1,8.45,14.311,22.7,22.7,0,0,1-1.369,12.949,23.669,23.669,0,0,1-11.536,12.417,22.664,22.664,0,0,1-8.406,2.375,2.254,2.254,0,0,0-.376.1Z" transform="translate(-217.318 1412.732)"/>
    </g>
  </g>
</svg>
